ffmpeg started on 2016-11-24 at 14:04:47
Report written to "Output/NVENCh264/results/ffmpeg/sintelhp7000k.log"
Command line:
Tools/ffmpeg/ffmpeg -benchmark -y -i Input/y4m/sintel.y4m -c:v h264_nvenc -preset hp -b:v 7000k -an Output/NVENCh264/encoded/sintelhp7000k.mkv
ffmpeg version N-82227-gdb23fde Copyright (c) 2000-2016 the FFmpeg developers
  built with gcc 5.4.0 (Ubuntu 5.4.0-6ubuntu1~16.04.2) 20160609
  configuration: --prefix=/home/jaroslav/ffmpeg_build --pkg-config-flags=--static --extra-cflags=-I/home/jaroslav/ffmpeg_build/include --extra-ldflags=-L/home/jaroslav/ffmpeg_build/lib --bindir=/home/jaroslav/bin --enable-gpl --enable-libass --enable-libfdk-aac --enable-libfreetype --enable-libmp3lame --enable-libopus --enable-libtheora --enable-libvorbis --enable-libvpx --enable-libx264 --enable-libx265 --enable-nvenc --enable-libmfx --enable-libxvid --enable-libgsm --enable-libopencore-amrnb --enable-version3 --enable-nonfree
  libavutil      55. 35.100 / 55. 35.100
  libavcodec     57. 66.101 / 57. 66.101
  libavformat    57. 57.100 / 57. 57.100
  libavdevice    57.  2.100 / 57.  2.100
  libavfilter     6. 66.100 /  6. 66.100
  libswscale      4.  3.100 /  4.  3.100
  libswresample   2.  4.100 /  2.  4.100
  libpostproc    54.  2.100 / 54.  2.100
Input #0, yuv4mpegpipe, from 'Input/y4m/sintel.y4m':
  Duration: 00:00:20.83, start: 0.000000, bitrate: 2057307 kb/s
    Stream #0:0: Video: rawvideo (I420 / 0x30323449), yuv420p(progressive), 4096x1744, SAR 1:1 DAR 256:109, 24 fps, 24 tbr, 24 tbn, 24 tbc
Output #0, matroska, to 'Output/NVENCh264/encoded/sintelhp7000k.mkv':
  Metadata:
    encoder         : Lavf57.57.100
    Stream #0:0: Video: h264 (h264_nvenc) (Main) (H264 / 0x34363248), yuv420p, 4096x1744 [SAR 1:1 DAR 256:109], q=-1--1, 7000 kb/s, 24 fps, 1k tbn, 24 tbc
    Metadata:
      encoder         : Lavc57.66.101 h264_nvenc
    Side data:
      cpb: bitrate max/min/avg: 0/0/7000000 buffer size: 14000000 vbv_delay: -1
Stream mapping:
  Stream #0:0 -> #0:0 (rawvideo (native) -> h264 (h264_nvenc))
Press [q] to stop, [?] for help
frame=    3 fps=0.9 q=0.0 size=       0kB time=00:00:00.00 bitrate=N/A speed=   0x    frame=    4 fps=0.6 q=0.0 size=       0kB time=00:00:00.00 bitrate=N/A speed=   0x    frame=   11 fps=1.5 q=0.0 size=       0kB time=00:00:00.00 bitrate=N/A speed=   0x    frame=   32 fps=4.1 q=33.0 size=       1kB time=00:00:00.04 bitrate= 136.4kbits/s speed=0.00554x    frame=   53 fps=6.4 q=40.0 size=       1kB time=00:00:00.91 bitrate=   6.4kbits/s speed=0.111x    frame=   74 fps=8.4 q=41.0 size=       1kB time=00:00:01.79 bitrate=   3.3kbits/s speed=0.204x    frame=   95 fps= 10 q=41.0 size=       1kB time=00:00:02.66 bitrate=   2.2kbits/s speed=0.287x    frame=  116 fps= 12 q=41.0 size=       1kB time=00:00:03.54 bitrate=   1.7kbits/s speed=0.361x    frame=  137 fps= 13 q=40.0 size=       1kB time=00:00:04.41 bitrate=   1.3kbits/s speed=0.428x    frame=  157 fps= 15 q=40.0 size=    4594kB time=00:00:05.25 bitrate=7167.0kbits/s speed=0.485x    frame=  178 fps= 16 q=40.0 size=    4594kB time=00:00:06.12 bitrate=6143.3kbits/s speed=0.541x    frame=  199 fps= 17 q=39.0 size=    4594kB time=00:00:07.00 bitrate=5375.5kbits/s speed=0.592x    frame=  220 fps= 18 q=40.0 size=    4594kB time=00:00:07.87 bitrate=4778.3kbits/s speed=0.638x    frame=  241 fps= 19 q=40.0 size=    4594kB time=00:00:08.75 bitrate=4300.5kbits/s speed=0.68x    frame=  262 fps= 20 q=39.0 size=    4594kB time=00:00:09.62 bitrate=3909.6kbits/s speed=0.72x    frame=  283 fps= 20 q=38.0 size=    8398kB time=00:00:10.50 bitrate=6551.4kbits/s speed=0.756x    frame=  304 fps= 21 q=37.0 size=    9036kB time=00:00:11.37 bitrate=6506.6kbits/s speed=0.79x    frame=  314 fps= 21 q=37.0 size=    9036kB time=00:00:11.79 bitrate=6276.5kbits/s speed=0.788x    frame=  335 fps= 22 q=35.0 size=    9036kB time=00:00:12.66 bitrate=5843.0kbits/s speed=0.818x    frame=  356 fps= 22 q=34.0 size=    9036kB time=00:00:13.54 bitrate=5465.5kbits/s speed=0.846x    frame=  377 fps= 23 q=32.0 size=    9036kB time=00:00:14.41 bitrate=5133.8kbits/s speed=0.873x    frame=  398 fps= 23 q=34.0 size=    9036kB time=00:00:15.29 bitrate=4840.1kbits/s speed=0.898x    frame=  419 fps= 24 q=32.0 size=   11965kB time=00:00:16.16 bitrate=6062.3kbits/s speed=0.922x    frame=  440 fps= 24 q=34.0 size=   11965kB time=00:00:17.04 bitrate=5751.1kbits/s speed=0.944x    frame=  461 fps= 25 q=34.0 size=   12993kB time=00:00:17.91 bitrate=5940.4kbits/s speed=0.965x    frame=  482 fps= 25 q=34.0 size=   12993kB time=00:00:18.79 bitrate=5663.8kbits/s speed=0.985x    frame=  500 fps= 26 q=34.0 Lsize=   15590kB time=00:00:20.79 bitrate=6142.0kbits/s speed=1.06x    
video:15585kB audio:0kB subtitle:0kB other streams:0kB global headers:0kB muxing overhead: 0.030942%
bench: utime=0.892s
bench: maxrss=840248kB
